<?xml version="1.0" encoding="UTF-8"?>
<svg width="700pt" height="700pt" version="1.1" viewBox="0 0 700 700" xmlns="http://www.w3.org/2000/svg" xmlns:xlink="http://www.w3.org/1999/xlink">
 <defs>
  <symbol id="u" overflow="visible">
   <path d="m20.844-1.25c-1.0742 0.5625-2.1953 0.98438-3.3594 1.2656-1.168 0.28125-2.3828 0.42188-3.6406 0.42188-3.7812 0-6.7773-1.0508-8.9844-3.1562-2.2109-2.1133-3.3125-4.9766-3.3125-8.5938 0-3.625 1.1016-6.4922 3.3125-8.6094 2.207-2.1133 5.2031-3.1719 8.9844-3.1719 1.2578 0 2.4727 0.14844 3.6406 0.4375 1.1641 0.28125 2.2852 0.69922 3.3594 1.25v4.7031c-1.0859-0.73828-2.1523-1.2812-3.2031-1.625-1.0547-0.34375-2.1641-0.51562-3.3281-0.51562-2.0859 0-3.7266 0.66797-4.9219 2-1.1992 1.3359-1.7969 3.1797-1.7969 5.5312 0 2.3359 0.59766 4.1719 1.7969 5.5156 1.1953 1.3359 2.8359 2 4.9219 2 1.1641 0 2.2734-0.17188 3.3281-0.51562 1.0508-0.34375 2.1172-0.88281 3.2031-1.625z"/>
  </symbol>
  <symbol id="e" overflow="visible">
   <path d="m15.25-12.375c-0.48047-0.22656-0.95312-0.39453-1.4219-0.5-0.46875-0.10156-0.94531-0.15625-1.4219-0.15625-1.3984 0-2.4766 0.44922-3.2344 1.3438-0.75 0.89844-1.125 2.1797-1.125 3.8438v7.8438h-5.4375v-17.016h5.4375v2.7969c0.69531-1.1133 1.5-1.9258 2.4062-2.4375 0.90625-0.50781 1.9922-0.76562 3.2656-0.76562 0.17578 0 0.36719 0.011719 0.57812 0.03125 0.21875 0.011719 0.53125 0.042969 0.9375 0.09375z"/>
  </symbol>
  <symbol id="a" overflow="visible">
   <path d="m19.594-8.5469v1.5469h-12.719c0.13281 1.2734 0.59766 2.2305 1.3906 2.875 0.78906 0.63672 1.8945 0.95312 3.3125 0.95312 1.1445 0 2.3164-0.16406 3.5156-0.5 1.1953-0.34375 2.4297-0.85938 3.7031-1.5469v4.1875c-1.293 0.49219-2.5859 0.85547-3.875 1.0938-1.2812 0.25-2.5625 0.375-3.8438 0.375-3.0859 0-5.4805-0.78125-7.1875-2.3438-1.6992-1.5625-2.5469-3.7539-2.5469-6.5781 0-2.7812 0.83203-4.9609 2.5-6.5469 1.6758-1.5938 3.9844-2.3906 6.9219-2.3906 2.6758 0 4.8164 0.80859 6.4219 2.4219 1.6016 1.6055 2.4062 3.7578 2.4062 6.4531zm-5.5938-1.8125c0-1.0312-0.30469-1.8633-0.90625-2.5-0.59375-0.63281-1.3828-0.95312-2.3594-0.95312-1.0547 0-1.9062 0.29688-2.5625 0.89062s-1.0703 1.4492-1.2344 2.5625z"/>
  </symbol>
  <symbol id="d" overflow="visible">
   <path d="m10.234-7.6562c-1.1367 0-1.9922 0.19531-2.5625 0.57812-0.5625 0.38672-0.84375 0.95312-0.84375 1.7031 0 0.6875 0.22656 1.2305 0.6875 1.625 0.45703 0.38672 1.0977 0.57812 1.9219 0.57812 1.0195 0 1.8789-0.36328 2.5781-1.0938 0.69531-0.73828 1.0469-1.6602 1.0469-2.7656v-0.625zm8.3125-2.0469v9.7031h-5.4844v-2.5156c-0.73047 1.0312-1.5547 1.7812-2.4688 2.25-0.90625 0.46875-2.0117 0.70312-3.3125 0.70312-1.7617 0-3.1953-0.50781-4.2969-1.5312-1.0938-1.0312-1.6406-2.3672-1.6406-4.0156 0-1.9883 0.67969-3.4453 2.0469-4.375 1.375-0.9375 3.5312-1.4062 6.4688-1.4062h3.2031v-0.42188c0-0.86328-0.33984-1.4922-1.0156-1.8906-0.67969-0.40625-1.7344-0.60938-3.1719-0.60938-1.168 0-2.2578 0.12109-3.2656 0.35938-1 0.23047-1.9297 0.57812-2.7812 1.0469v-4.1562c1.1641-0.28125 2.332-0.49219 3.5-0.64062 1.1758-0.14453 2.3516-0.21875 3.5312-0.21875 3.0703 0 5.2852 0.60547 6.6406 1.8125 1.3633 1.2109 2.0469 3.1797 2.0469 5.9062z"/>
  </symbol>
  <symbol id="c" overflow="visible">
   <path d="m8.5469-21.844v4.8281h5.6094v3.8906h-5.6094v7.2188c0 0.79297 0.15625 1.3281 0.46875 1.6094 0.32031 0.27344 0.94531 0.40625 1.875 0.40625h2.7969v3.8906h-4.6719c-2.1484 0-3.668-0.44531-4.5625-1.3438-0.89844-0.89453-1.3438-2.4141-1.3438-4.5625v-7.2188h-2.7031v-3.8906h2.7031v-4.8281z"/>
  </symbol>
  <symbol id="l" overflow="visible">
   <path d="m14.188-14.516v-9.125h5.4688v23.641h-5.4688v-2.4531c-0.75 1-1.5781 1.7344-2.4844 2.2031-0.89844 0.45703-1.9375 0.6875-3.125 0.6875-2.0938 0-3.8203-0.83203-5.1719-2.5-1.3438-1.6641-2.0156-3.8047-2.0156-6.4219 0-2.625 0.67188-4.7695 2.0156-6.4375 1.3516-1.6641 3.0781-2.5 5.1719-2.5 1.1758 0 2.2188 0.23438 3.125 0.70312s1.7344 1.2031 2.4844 2.2031zm-3.5781 11c1.1562 0 2.0391-0.42188 2.6562-1.2656 0.61328-0.85156 0.92188-2.0859 0.92188-3.7031 0-1.625-0.30859-2.8594-0.92188-3.7031-0.61719-0.85156-1.5-1.2812-2.6562-1.2812s-2.043 0.42969-2.6562 1.2812c-0.61719 0.84375-0.92188 2.0781-0.92188 3.7031 0 1.6172 0.30469 2.8516 0.92188 3.7031 0.61328 0.84375 1.5 1.2656 2.6562 1.2656z"/>
  </symbol>
  <symbol id="k" overflow="visible">
   <path d="m11.672-3.5156c1.1562 0 2.0391-0.42188 2.6562-1.2656 0.61328-0.85156 0.92188-2.0859 0.92188-3.7031 0-1.625-0.30859-2.8594-0.92188-3.7031-0.61719-0.85156-1.5-1.2812-2.6562-1.2812-1.168 0-2.0625 0.42969-2.6875 1.2812-0.625 0.85547-0.9375 2.0898-0.9375 3.7031 0 1.6055 0.3125 2.8359 0.9375 3.6875 0.625 0.85547 1.5195 1.2812 2.6875 1.2812zm-3.625-11c0.75-1 1.5781-1.7344 2.4844-2.2031 0.91406-0.46875 1.9688-0.70312 3.1562-0.70312 2.0938 0 3.8125 0.83594 5.1562 2.5 1.3516 1.668 2.0312 3.8125 2.0312 6.4375 0 2.6172-0.67969 4.7578-2.0312 6.4219-1.3438 1.668-3.0625 2.5-5.1562 2.5-1.1875 0-2.2422-0.23438-3.1562-0.70312-0.90625-0.46875-1.7344-1.1953-2.4844-2.1875v2.4531h-5.4375v-23.641h5.4375z"/>
  </symbol>
  <symbol id="j" overflow="visible">
   <path d="m0.375-17.016h5.4375l4.5781 11.547 3.8906-11.547h5.4375l-7.1562 18.625c-0.71875 1.8945-1.5586 3.2188-2.5156 3.9688-0.96094 0.75781-2.2188 1.1406-3.7812 1.1406h-3.1562v-3.5781h1.7031c0.92578 0 1.5977-0.14844 2.0156-0.4375 0.41406-0.29297 0.74219-0.82031 0.98438-1.5781l0.14062-0.46875z"/>
  </symbol>
  <symbol id="g" overflow="visible">
   <path d="m18.641-21.969v4.7969c-1.25-0.55078-2.4688-0.96875-3.6562-1.25-1.1797-0.28125-2.293-0.42188-3.3438-0.42188-1.3984 0-2.4336 0.19531-3.1094 0.57812-0.66797 0.375-1 0.96875-1 1.7812 0 0.61719 0.22266 1.0938 0.67188 1.4375 0.45703 0.33594 1.2734 0.62109 2.4531 0.85938l2.5 0.5c2.5195 0.51172 4.3125 1.2812 5.375 2.3125s1.5938 2.5 1.5938 4.4062c0 2.5-0.74609 4.3594-2.2344 5.5781-1.4805 1.2188-3.7422 1.8281-6.7812 1.8281-1.4375 0-2.8828-0.13672-4.3281-0.40625-1.4492-0.26953-2.8984-0.67578-4.3438-1.2188v-4.9375c1.4453 0.77344 2.8438 1.3555 4.1875 1.75 1.3516 0.38672 2.6602 0.57812 3.9219 0.57812 1.2695 0 2.2422-0.21094 2.9219-0.64062 0.67578-0.42578 1.0156-1.0352 1.0156-1.8281 0-0.70703-0.23047-1.25-0.6875-1.625-0.46094-0.38281-1.375-0.73438-2.75-1.0469l-2.2656-0.5c-2.2734-0.47656-3.9336-1.25-4.9844-2.3125-1.043-1.0703-1.5625-2.5078-1.5625-4.3125 0-2.25 0.72656-3.9844 2.1875-5.2031 1.457-1.2188 3.5508-1.8281 6.2812-1.8281 1.25 0 2.5312 0.09375 3.8438 0.28125 1.3203 0.1875 2.6875 0.46875 4.0938 0.84375z"/>
  </symbol>
  <symbol id="t" overflow="visible">
   <path d="m2.6094-23.641h5.4375v23.641h-5.4375z"/>
  </symbol>
  <symbol id="b" overflow="visible">
   <path d="m10.703-13.531c-1.1992 0-2.1172 0.43359-2.75 1.2969-0.63672 0.86719-0.95312 2.1172-0.95312 3.75 0 1.625 0.31641 2.8711 0.95312 3.7344 0.63281 0.86719 1.5508 1.2969 2.75 1.2969 1.1875 0 2.0938-0.42969 2.7188-1.2969 0.63281-0.86328 0.95312-2.1094 0.95312-3.7344 0-1.6328-0.32031-2.8828-0.95312-3.75-0.625-0.86328-1.5312-1.2969-2.7188-1.2969zm0-3.8906c2.9258 0 5.2109 0.79297 6.8594 2.375 1.6445 1.5742 2.4688 3.7617 2.4688 6.5625 0 2.793-0.82422 4.9805-2.4688 6.5625-1.6484 1.5742-3.9336 2.3594-6.8594 2.3594-2.9375 0-5.2344-0.78516-6.8906-2.3594-1.6484-1.582-2.4688-3.7695-2.4688-6.5625 0-2.8008 0.82031-4.9883 2.4688-6.5625 1.6562-1.582 3.9531-2.375 6.8906-2.375z"/>
  </symbol>
  <symbol id="f" overflow="visible">
   <path d="m19.719-10.359v10.359h-5.4688v-7.9219c0-1.4688-0.039062-2.4766-0.10938-3.0312-0.0625-0.5625-0.17188-0.97656-0.32812-1.25-0.21875-0.35156-0.51172-0.62891-0.875-0.82812-0.36719-0.19531-0.77734-0.29688-1.2344-0.29688-1.1367 0-2.0312 0.44531-2.6875 1.3281-0.64844 0.875-0.96875 2.0859-0.96875 3.625v8.375h-5.4375v-17.016h5.4375v2.5c0.82031-1 1.6914-1.7344 2.6094-2.2031 0.92578-0.46875 1.9453-0.70312 3.0625-0.70312 1.957 0 3.4453 0.60547 4.4688 1.8125 1.0195 1.1992 1.5312 2.9492 1.5312 5.25z"/>
  </symbol>
  <symbol id="i" overflow="visible">
   <path d="m2.6094-17.016h5.4375v17.016h-5.4375zm0-6.625h5.4375v4.4375h-5.4375z"/>
  </symbol>
  <symbol id="h" overflow="visible">
   <path d="m19.719-10.359v10.359h-5.4688v-7.9062c0-1.4766-0.039062-2.4922-0.10938-3.0469-0.0625-0.5625-0.17188-0.97656-0.32812-1.25-0.21875-0.35156-0.51172-0.62891-0.875-0.82812-0.36719-0.19531-0.77734-0.29688-1.2344-0.29688-1.1367 0-2.0312 0.44531-2.6875 1.3281-0.64844 0.875-0.96875 2.0859-0.96875 3.625v8.375h-5.4375v-23.641h5.4375v9.125c0.82031-1 1.6914-1.7344 2.6094-2.2031 0.92578-0.46875 1.9453-0.70312 3.0625-0.70312 1.957 0 3.4453 0.60547 4.4688 1.8125 1.0195 1.1992 1.5312 2.9492 1.5312 5.25z"/>
  </symbol>
  <symbol id="s" overflow="visible">
   <path d="m13.812-23.641v3.5781h-3.0156c-0.77344 0-1.3086 0.14062-1.6094 0.42188-0.30469 0.27344-0.45312 0.75-0.45312 1.4375v1.1875h4.6406v3.8906h-4.6406v13.125h-5.4375v-13.125h-2.7031v-3.8906h2.7031v-1.1875c0-1.8516 0.51562-3.2227 1.5469-4.1094 1.0312-0.88281 2.6289-1.3281 4.7969-1.3281z"/>
  </symbol>
  <symbol id="r" overflow="visible">
   <path d="m18.375-14.188c0.6875-1.0508 1.5039-1.8516 2.4531-2.4062 0.94531-0.55078 1.9883-0.82812 3.125-0.82812 1.957 0 3.4453 0.60547 4.4688 1.8125 1.0195 1.1992 1.5312 2.9492 1.5312 5.25v10.359h-5.4688v-8.875c0.007813-0.125 0.015625-0.25781 0.015625-0.40625 0.007812-0.14453 0.015625-0.34766 0.015625-0.60938 0-1.207-0.17969-2.082-0.53125-2.625-0.35547-0.53906-0.92969-0.8125-1.7188-0.8125-1.0312 0-1.8281 0.42969-2.3906 1.2812-0.5625 0.85547-0.85547 2.0859-0.875 3.6875v8.3594h-5.4688v-8.875c0-1.8828-0.16406-3.0977-0.48438-3.6406-0.32422-0.53906-0.90234-0.8125-1.7344-0.8125-1.043 0-1.8516 0.43359-2.4219 1.2969-0.5625 0.85547-0.84375 2.0742-0.84375 3.6562v8.375h-5.4688v-17.016h5.4688v2.5c0.66406-0.96875 1.4297-1.6914 2.2969-2.1719 0.875-0.48828 1.832-0.73438 2.875-0.73438 1.1758 0 2.2109 0.28906 3.1094 0.85938 0.90625 0.5625 1.5859 1.3555 2.0469 2.375z"/>
  </symbol>
  <symbol id="q" overflow="visible">
   <path d="m2.8594-22.672h6.5312l8.25 15.547v-15.547h5.5469v22.672h-6.5469l-8.2344-15.562v15.562h-5.5469z"/>
  </symbol>
  <symbol id="p" overflow="visible">
   <path d="m2.4375-6.625v-10.391h5.4688v1.7031c0 0.92969-0.007812 2.0898-0.015625 3.4844-0.011719 1.3867-0.015625 2.3125-0.015625 2.7812 0 1.3672 0.03125 2.3516 0.09375 2.9531 0.070312 0.60547 0.19531 1.043 0.375 1.3125 0.21875 0.35547 0.50391 0.63281 0.85938 0.82812 0.36328 0.1875 0.78125 0.28125 1.25 0.28125 1.1328 0 2.0234-0.42969 2.6719-1.2969 0.64453-0.875 0.96875-2.0859 0.96875-3.6406v-8.4062h5.4375v17.016h-5.4375v-2.4531c-0.82422 0.99219-1.6953 1.7188-2.6094 2.1875-0.91797 0.46875-1.9297 0.70312-3.0312 0.70312-1.9609 0-3.4531-0.59766-4.4844-1.7969-1.0234-1.207-1.5312-2.9609-1.5312-5.2656z"/>
  </symbol>
  <symbol id="o" overflow="visible">
   <path d="m2.8594-22.672h9.7031c2.8828 0 5.0977 0.64062 6.6406 1.9219 1.5508 1.2812 2.3281 3.1055 2.3281 5.4688 0 2.375-0.77734 4.2031-2.3281 5.4844-1.543 1.2812-3.7578 1.9219-6.6406 1.9219h-3.8594v7.875h-5.8438zm5.8438 4.2344v6.3281h3.2344c1.1328 0 2.0078-0.27344 2.625-0.82812 0.625-0.55078 0.9375-1.332 0.9375-2.3438 0-1.0078-0.3125-1.7852-0.9375-2.3281-0.61719-0.55078-1.4922-0.82812-2.625-0.82812z"/>
  </symbol>
  <symbol id="n" overflow="visible">
   <path d="m2.6094-17.016h5.4375v16.719c0 2.2695-0.54688 4.0039-1.6406 5.2031-1.0938 1.207-2.6797 1.8125-4.75 1.8125h-2.6875v-3.5781h0.9375c1.0312 0 1.7383-0.23438 2.125-0.70312 0.38281-0.46094 0.57812-1.3711 0.57812-2.7344zm0-6.625h5.4375v4.4375h-5.4375z"/>
  </symbol>
  <symbol id="m" overflow="visible">
   <path d="m16.359-16.484v4.4375c-0.74219-0.50781-1.4844-0.88281-2.2344-1.125-0.74219-0.23828-1.5117-0.35938-2.3125-0.35938-1.5117 0-2.6953 0.44531-3.5469 1.3281-0.84375 0.88672-1.2656 2.125-1.2656 3.7188 0 1.5859 0.42188 2.8203 1.2656 3.7031 0.85156 0.88672 2.0352 1.3281 3.5469 1.3281 0.85156 0 1.6602-0.125 2.4219-0.375 0.76953-0.25 1.4766-0.625 2.125-1.125v4.4531c-0.85547 0.3125-1.7188 0.54688-2.5938 0.70312s-1.75 0.23438-2.625 0.23438c-3.0742 0-5.4766-0.78516-7.2031-2.3594-1.7305-1.5703-2.5938-3.7578-2.5938-6.5625 0-2.8125 0.86328-5.0039 2.5938-6.5781 1.7266-1.5703 4.1289-2.3594 7.2031-2.3594 0.88281 0 1.7578 0.078125 2.625 0.23438 0.86328 0.15625 1.7266 0.39062 2.5938 0.70312z"/>
  </symbol>
 </defs>
 <g>
  <path d="m612.9 16.621c24.477 116.96-15.051 275.04 0 393.93 0.42188 10.684-11.406 9.0703-16.762 13.969-4.5312 40.176-3.7383 85.688-22.363 111.76-10.664 2.2852-10.809-5.9531-13.977-11.18-8.1875 2.9688-5.5234 16.82-13.949 19.562-18.953 0.32422-20.527-16.738-25.145-30.738-14.074 4.5742-5.668 31.57-19.574 36.324-45.645-11.73-15.766-81.973-33.531-120.14-5.6641 37.285 10.191 105.03-22.336 122.93-23.594-13.664-10.477-64.051-19.574-92.188-11.523 23.121 4.4062 79.98-25.145 92.188-16.621-27.336-26.711-73.168-13.949-100.57 13.191 26.004 1.3828 61.352 16.762 86.602 14.523-6.8867 7.2383-35.598 11.168-53.07-28.293-17.336-16.289-74.984-22.363-114.56-11.617 23.457 10.359 83.316-25.145 89.414-2.0469 31.328 8.3555 94.746-27.93 89.395-26.582-18.652 8.1562-99.336-19.555-125.72-8.8672 27.676 2.4883 74.367-8.3828 103.37-22.504-2.0234-15.93 25.051-33.523 27.93-10.535-0.64844-15.078-7.2734-13.977-19.551-9.543 1.1445-3.5469 7.5352-13.969 2.7812-2.4844-6.832-6.5156-12.113-5.582-22.344-13.707 7.6953-11.23 31.609-30.73 33.523-5.7383-11.965-7.1992-28.191-11.176-41.906-11.102 11.258-3.832 40.875-25.145 41.906-13.031-5.6055-13.551-23.707-13.969-41.906-18.629 6.5156-12.004 38.273-27.938 47.496-14.324-3.3867-17.23-18.168-16.762-36.312-6.2852-5.5938-15.711 3.0742-22.352-5.5938-3.1875-32.207 9.5703-80.336-13.969-92.195-4.2969-129.42-7.0352-281.98 11.176-396.72 33.078-14.523 72.234-7.418 111.75-8.3828 71.418-1.7617 147.46-11.176 220.7-11.176 65.578-0.003907 133.04-6.8047 187.21 11.172zm-178.82 25.141c-1.9336 38.098-3.8594 76.223-2.7891 117.34 58.887 29.504 66.891 174.25-2.7812 198.36-0.74219 12.32-4.4805 21.609-2.8125 36.324 45.766-8.0508 93.055 4.9531 150.87-5.5938-11.043-103.8 9.4336-229.21 2.8047-346.43-42.172-1.9219-96.293-6.7227-145.29 0zm-315.7 11.172c2.0117 31.672 4.1328 58.801-2.8008 86.613 55.812 4.2266 103.89-0.082031 167.63 2.8008 32.332-18.238 72.59-26.582 103.38-8.3828 4.6172-26.344 10.977-65.055 8.3828-89.414-93.172-0.69141-193.2 4.7656-276.6 8.3828zm195.57 226.3c6.4141-24.453 21.008-81.82 2.7891-103.36-1.0273 32.117-16.352 74.66-2.7891 103.36zm19.551-103.36c-4.2969 81.008-13.496 154.9-2.793 240.27 22.867-77.598-3.0938-151.61 11.176-234.68 9.6992 32.953-0.59766 93.793 11.176 125.73 15.91-30.656 5.3438-87.781 8.3828-131.31-9.3125-0.007812-18.625-0.007812-27.941-0.007812zm-217.92 220.7c52.078 4.5312 97.938 1.6875 136.9 8.3867-0.082031 35.188 3.2539 67.48 2.793 114.55 14.441-3.2617 8.668-26.73 13.969-39.117-17.18-35.219-0.3125-83.746 0-131.31-50.781-24.492-68.941-113.52-36.324-167.62-37.207-7.1797-78.492 4.6055-117.34-2.8008-9.4336 63.992-4.7617 145.39 0 217.92zm268.21-128.5c9.832-19.785 15.523-56.148 8.3828-83.812-6.0234-2.3477-9.5195-7.2422-19.551-5.5938 7.0938 26.422-2.1719 69.211 11.168 89.406zm-97.777 47.488c-3.7891-46.039 16.266-96.875 5.582-131.31-21.902 26.695-24.348 104.8-5.582 131.31zm97.777 27.945c13.855-1.6875 17.219-22.859 19.574-36.324 6.2852-36.168 6.0898-78.84 2.7812-114.54-3.5703-0.16797-3.8594-3.5977-8.3828-2.8008 14.523 62.66-23.43 94.59-13.973 153.67zm41.898-36.324c27.121-14.691 16.574-71.426 0-89.402-5.2109 29.172-5.5234 60.609 0 89.402zm-162.03-30.734c1.625-5.0469 7.3359-49.191 0-53.09-5.2461 12.031-17.023 44.238 0 53.09zm30.73 39.113c10.938 0.60938 5.4492-41.578 2.793-36.324 0.66016 13.688-4.918 21.156-2.793 36.324zm61.465 0c21.598 29.91-5.2656 101.52 19.551 131.31 12.93-50.051-1.4766-113.93-8.3828-162.03 0.33594 14.277-8.2422 19.672-11.168 30.723zm-47.496 64.254c3.1289-23.645 14.449-66.535 2.8008-86.602-1.9023 26.184-5.7812 63.746-2.8008 86.602zm95.004-41.902c14.953 2.7422 26.477-12.508 25.145-16.762-9.3828 10.105-12.855-9.3203-19.574-11.168 1.168 12.316-0.73828 21.578-5.5703 27.93zm-64.266 83.809c0.023438 11.652 6.1055 23.812 5.5859 36.324-1.1016 26.469-19.668 59.758 2.793 83.82 27.41-55.352 2.4844-164.12 0-223.51 7.0352 41.004-8.4336 76.605-8.3789 103.36zm-64.262 36.324c21.547-27.852 15.137-88.836 22.352-122.93-0.58984-3.1406-3.1055-4.3555-5.5859-5.5938-20.449 26.246-20.059 87.812-16.766 128.52zm136.91 8.3828c13.031-29.824 5.0508-80.621 11.168-117.34-8.2383 3.7891-17.285 3.4961-22.363-2.793 3.9609 39.094-4.9023 87.789 11.195 120.13zm-103.38-61.465c-8.2461 31.715-12.949 76.055-2.793 108.96 6.7617-33.289-1.4297-81.531 11.168-108.96h-8.375zm251.44 19.562c8.9727 30.371-12.691 81.742 13.977 103.37 5.0508-31.781 25.766-72.836 11.168-106.17-8.7422 0.5625-20.504-1.8828-25.145 2.7969zm-41.914 5.582c11.43 17.441-1.6875 59.453 13.98 72.645 10.254-19.93 21.883-48.926 13.977-78.227-9.7617 1.4141-21.094 1.2461-27.957 5.582zm-33.52 86.613c22.07-11.66 24.715-56.969 19.574-86.613-41.812-15.938-16.406 58.27-19.574 86.613zm-55.863-58.676c1.543-5.8125 4.3555-5.918 8.3828-2.793 5.7422 24.949-8.2891 71.785 13.949 86.613 11.008-32.41 13.98-77.969 2.8125-111.76h-27.957c1.7617 8.5-3.5625 24.066 2.8125 27.938zm-315.71 50.289c4.8984-13.844 20.336-43.227 11.176-69.852h-13.961c-1.9844 21.434-11.668 56.148 2.7852 69.852zm39.121-67.051c7.5234 13.328-9.2891 44.316 2.793 53.09 16.52-5.8359 8.168-36.535 16.762-50.289-5.9922-2.1914-15.609-6.7891-19.555-2.8008zm50.289 0c-2.75 22.398 0.76562 33.613 2.793 50.293 11.652-11.637 16.258-30.316 19.555-50.293-11.117-2.0352-11.238-2.0352-22.348 0zm16.762 95c21.695-12.941 30.391-68.09 16.762-97.793h-5.5859c-1.3164 33.691-22.758 60.324-11.176 97.793zm-83.812 11.164c13.641-14.617 8.7344-28.629 5.582-44.699-4.1328-21.098 7.3164-58.645-5.582-61.469-1.3633 37.02-16.105 77.234 0 106.17zm47.492-5.582c14.848-26.793 6.6875-59.957 8.3828-100.58-30.652 8.4844-21.074 79.992-8.3828 100.58zm97.781 2.793c17.242-19.969 7.9961-64.352 8.3828-92.195-11.504 24.957-28.336 67.574-8.3828 92.195zm220.71-2.793c4.8789-23.852 28.188-48.16 8.3828-72.637 9.207 32.789-35.887 57.125-8.3828 72.637zm44.719-5.582c0.023438-19.582 10.715-43.238 2.7812-61.469 2.0469 23.176-28.648 48.414-2.7812 61.469z" fill-rule="evenodd"/>
  <path d="m509.51 52.934c75.555-15.762 74.934 104.03 16.762 103.38-52.863-0.60547-79.977-90.16-16.762-103.38zm2.8086 47.504c5.0977 11.598 20.34 13.578 30.719 5.582 6.3594-30.633-32.598-37.465-30.719-5.582z" fill-rule="evenodd"/>
  <use x="70" y="653.332031" xlink:href="#u"/>
  <use x="92.832031" y="653.332031" xlink:href="#e"/>
  <use x="108.175781" y="653.332031" xlink:href="#a"/>
  <use x="129.273437" y="653.332031" xlink:href="#d"/>
  <use x="150.269531" y="653.332031" xlink:href="#c"/>
  <use x="165.140625" y="653.332031" xlink:href="#a"/>
  <use x="186.242188" y="653.332031" xlink:href="#l"/>
  <use x="219.34375" y="653.332031" xlink:href="#k"/>
  <use x="241.613281" y="653.332031" xlink:href="#j"/>
  <use x="272.722656" y="653.332031" xlink:href="#g"/>
  <use x="295.128906" y="653.332031" xlink:href="#d"/>
  <use x="316.125" y="653.332031" xlink:href="#t"/>
  <use x="326.789062" y="653.332031" xlink:href="#b"/>
  <use x="348.160156" y="653.332031" xlink:href="#f"/>
  <use x="370.308594" y="653.332031" xlink:href="#i"/>
  <use x="391.804688" y="653.332031" xlink:href="#g"/>
  <use x="414.210938" y="653.332031" xlink:href="#i"/>
  <use x="424.875" y="653.332031" xlink:href="#f"/>
  <use x="447.023438" y="653.332031" xlink:href="#h"/>
  <use x="469.171875" y="653.332031" xlink:href="#d"/>
  <use x="70" y="684.445312" xlink:href="#s"/>
  <use x="83.535156" y="684.445312" xlink:href="#e"/>
  <use x="98.878906" y="684.445312" xlink:href="#b"/>
  <use x="120.25" y="684.445312" xlink:href="#r"/>
  <use x="163.5" y="684.445312" xlink:href="#c"/>
  <use x="178.371094" y="684.445312" xlink:href="#h"/>
  <use x="200.519531" y="684.445312" xlink:href="#a"/>
  <use x="232.453125" y="684.445312" xlink:href="#q"/>
  <use x="258.488281" y="684.445312" xlink:href="#b"/>
  <use x="279.863281" y="684.445312" xlink:href="#p"/>
  <use x="302.011719" y="684.445312" xlink:href="#f"/>
  <use x="334.992188" y="684.445312" xlink:href="#o"/>
  <use x="357.792969" y="684.445312" xlink:href="#e"/>
  <use x="373.136719" y="684.445312" xlink:href="#b"/>
  <use x="394.507812" y="684.445312" xlink:href="#n"/>
  <use x="405.171875" y="684.445312" xlink:href="#a"/>
  <use x="426.273437" y="684.445312" xlink:href="#m"/>
  <use x="444.714844" y="684.445312" xlink:href="#c"/>
 </g>
</svg>
